<svg width="49" height="44" viewBox="0 0 49 44" fill="none" xmlns="http://www.w3.org/2000/svg">
<path fill-rule="evenodd" clip-rule="evenodd" d="M6.65352 21.7301C6.66811 21.7798 6.71318 21.8141 6.76495 21.8149C10.3304 21.873 14.1986 21.8736 17.8231 21.8736C17.8885 21.8736 17.9414 21.9264 17.9416 21.9918C17.9606 29.2817 17.9222 36.9924 17.9407 43.8018C17.941 43.8918 17.8448 43.9487 17.7659 43.9055C11.595 40.5331 6.43876 35.548 3.44667 29.13C3.41014 29.0516 3.46743 28.9619 3.55388 28.9619C5.48539 28.9611 7.43354 28.9494 9.34563 28.9615C9.38536 28.9618 9.42232 28.982 9.44415 29.0152C10.2641 30.2618 11.1147 31.3733 12.0406 32.4762C12.0846 32.5286 12.1964 32.6488 12.2967 32.7489C12.3636 32.8157 12.4618 32.7715 12.4637 32.6771C12.4998 30.8626 12.5182 29.0146 12.519 27.1833C12.519 27.1178 12.466 27.0647 12.4005 27.0647C9.20618 27.0645 5.90221 27.0565 2.70875 27.0563C2.65895 27.0563 2.61448 27.0252 2.59745 26.9784C0.679448 21.7084 -0.176352 16.2712 0.030091 10.6666C0.0314507 10.6297 0.0500627 10.5954 0.0802709 10.5741C5.362 6.85688 11.3726 4.88315 17.8155 4.48415C17.8837 4.47993 17.9413 4.53414 17.9413 4.60239C17.9413 6.36457 17.9413 8.09091 17.9413 9.81649C17.9413 9.87923 17.8925 9.9311 17.8298 9.93511C13.552 10.2094 9.24194 11.4111 5.57557 13.5831C5.54022 13.604 5.51834 13.6417 5.51777 13.6828C5.48008 16.3649 5.89777 19.1565 6.65352 21.7301Z" fill="#44087D"/>
<path fill-rule="evenodd" clip-rule="evenodd" d="M20.257 4.61713C20.2573 4.54776 20.3171 4.49347 20.3862 4.49975C26.7109 5.07471 32.504 7.13271 37.7658 10.6738C37.7964 10.6944 37.8158 10.7282 37.8179 10.765C37.9956 13.81 37.8057 16.8481 37.239 19.8523C37.2285 19.9079 37.1799 19.9482 37.1233 19.9486C35.314 19.9614 33.6398 19.9485 31.9371 19.9479C31.8716 19.9479 31.8185 19.8951 31.8185 19.8296C31.8204 17.967 31.8643 15.6631 31.82 13.7605C31.8191 13.7194 31.7967 13.6819 31.7611 13.6612C29.7138 12.4733 27.767 11.6023 25.5117 10.9708C25.4357 10.9495 25.3607 11.0074 25.3617 11.0864C25.4569 18.374 25.3421 25.5656 25.4372 32.8532C25.4382 32.9335 25.5169 32.9879 25.5885 32.9516C25.6881 32.9011 25.7924 32.8338 25.8439 32.7714C27.1507 31.1886 28.2147 29.4502 29.036 27.5561C29.0639 27.4919 29.1142 27.3468 29.1505 27.2235C29.1717 27.1516 29.1169 27.0831 29.0419 27.0831C28.5387 27.0831 28.0709 27.0831 27.5515 27.0831C27.486 27.0831 27.4328 27.0299 27.4328 26.9644C27.4328 25.2468 27.4328 23.7083 27.4328 21.9908C27.4328 21.9252 27.4859 21.872 27.5514 21.872C30.5734 21.872 33.6142 21.872 36.6738 21.872C36.7498 21.872 36.8061 21.9431 36.7891 22.0172C34.5679 31.7185 28.9435 39.0533 20.3904 43.9011C20.3122 43.9454 20.2148 43.89 20.2135 43.8002C20.0195 30.7708 20.1906 17.7131 20.257 4.61713Z" fill="#44087D"/>
<path d="M42.2373 1.33455C40.403 6.50968 39.6377 7.0256 34.1795 6.76688C39.3267 8.61112 39.8399 9.3805 39.5826 14.8683C41.4168 9.69315 42.1821 9.17726 47.6403 9.43598C42.4931 7.59178 41.98 6.82237 42.2373 1.33455Z" fill="#44087D"/>
</svg>
