<svg xmlns="http://www.w3.org/2000/svg" viewBox="0 0 380 380"><path fill="#e24329" d="m190.462 365.357-68.587-211.118h137.174z"/><path fill="#fc6d26" d="m190.462 365.357-68.587-211.118H30.439z"/><path fill="#fca326" d="M30.439 154.239 10.088 216.82a13.762 13.762 0 0 0 5.002 15.388l175.372 127.45z"/><path fill="#e24329" d="M30.439 154.239h91.436L80.61 13.665c-2.142-6.593-11.469-6.593-13.612 0z"/><path fill="#fc6d26" d="m190.462 365.357 68.587-211.118h91.437z"/><path fill="#fca326" d="m350.486 154.239 20.351 62.581a13.762 13.762 0 0 1-5.003 15.388L190.462 359.657z"/><path fill="#e24329" d="M350.486 154.239h-91.437l41.265-140.574c2.142-6.593 11.47-6.593 13.612 0z"/></svg>
